<svg width="77" height="73" viewBox="0 0 77 73" fill="none" xmlns="http://www.w3.org/2000/svg">
<path d="M55.2402 17.9245C55.2397 17.9246 55.2392 17.9246 55.2387 17.9244C54.9466 17.8092 54.7874 17.5431 54.5661 17.3571C54.0385 16.9117 53.4639 16.6503 52.7531 16.7278C51.6729 16.8452 50.7562 17.3093 50.022 18.0842C49.2478 18.9006 48.8298 19.8938 48.6928 21.0241C48.6059 21.7426 48.6153 22.4611 48.5926 23.1781C48.5613 24.1612 48.6999 25.1357 49.0427 26.0616C49.2275 26.5618 49.5335 26.9962 50.0807 27.1864C50.1832 27.2216 50.278 27.184 50.3758 27.1794C50.9598 27.152 51.4717 26.9398 51.9429 26.597C52.5841 26.1289 53.1312 25.5748 53.6267 24.9549C54.0651 24.4062 54.5489 23.8927 54.9614 23.3221C55.2839 22.876 55.6017 22.4267 55.9297 21.9853C56.4354 21.3035 57.0373 20.729 57.7512 20.2578C58.2734 19.9134 58.8166 19.6488 59.4084 19.4493C59.8186 19.3107 60.2421 19.2301 60.6554 19.1103C60.8268 19.0602 61.0319 19.0634 61.2213 19.061C61.7685 19.0532 62.3118 18.9381 62.8605 18.9882C63.3309 19.0313 63.81 18.9734 64.2734 19.126C64.5278 19.2097 64.8042 19.1737 65.0703 19.2043C65.4609 19.2489 65.8327 19.3686 66.2147 19.4414C66.6421 19.5228 67.0735 19.6238 67.4758 19.785C68.1451 20.0527 68.8183 20.311 69.4398 20.693C70.2007 21.1603 70.8731 21.7277 71.5307 22.325C72.0136 22.7633 72.4857 23.2079 72.8943 23.7174C73.0187 23.8724 73.1299 24.0375 73.2058 24.2246C73.2316 24.2872 73.2677 24.3506 73.3138 24.3999C74.0371 25.1725 74.3542 26.1485 74.6845 27.1183C74.7479 27.3046 74.6931 27.422 74.5123 27.5042C74.218 27.638 73.9166 27.7437 73.6019 27.8141C73.3733 27.865 73.3593 27.9386 73.4508 28.1531C73.663 28.654 73.8093 29.1768 73.9299 29.7083C74.0708 30.3329 73.9878 30.9599 73.9714 31.5853C73.9651 31.8201 73.9111 32.0557 73.8665 32.2881C73.7553 32.8587 73.6035 33.4168 73.4054 33.9663C73.3037 34.2504 73.1815 34.5337 73.115 34.8327C73.0743 35.0159 73.133 35.1278 73.3178 35.1779C73.436 35.21 73.5502 35.2562 73.6653 35.2977C73.8367 35.3595 73.8681 35.4644 73.7679 35.6178C73.5432 35.9622 73.259 36.2612 72.9303 36.4929C72.4872 36.8044 72.0543 37.1316 71.5925 37.4173C70.8543 37.8744 70.0864 38.2689 69.2809 38.589C68.8191 38.7721 68.3384 38.9044 67.8649 39.0547C67.0179 39.3232 66.1521 39.5001 65.2817 39.6652C64.7133 39.7732 64.1411 39.8366 63.572 39.9259C63.1321 39.9948 62.6875 39.9525 62.2538 40.0175C61.1243 40.1873 60.0002 40.0018 58.8738 40.0049C58.516 40.0057 58.1716 39.8758 57.8068 39.8586C57.3559 39.8382 56.9387 39.9454 56.5301 40.0863C55.59 40.4112 54.6623 40.7751 53.7081 41.0569C52.7336 41.3449 51.7559 41.64 50.7437 41.759C50.3422 41.806 49.939 41.8545 49.5374 41.9061C49.0662 41.9664 48.5981 42.0001 48.1245 41.9641C48.0439 41.9578 47.9586 41.9907 47.8772 42.0118C47.5766 42.0877 47.2994 41.9985 47.0278 41.8881C46.8987 41.8357 46.9221 41.7175 46.9574 41.6103C47.0294 41.3888 47.146 41.1845 47.2854 41.0068C47.7096 40.4652 48.0666 39.8648 48.5676 39.3905C49.0451 38.9389 49.521 38.4818 50.0447 38.0802C50.087 38.0474 50.1261 38.0098 50.1637 37.9722C50.3719 37.7632 50.3609 37.7006 50.1034 37.5527C49.3065 37.0964 48.5519 36.5766 47.8028 36.0467C47.3832 35.7501 46.9801 35.4362 46.5934 35.0996C45.9523 34.5416 45.5217 33.841 45.1624 33.0763C44.8008 32.3054 44.465 31.5266 44.2074 30.7172C44.0063 30.084 43.8669 29.4351 43.8184 28.7675C43.7667 28.0536 43.8607 27.3766 44.1323 26.7066C44.6082 25.5325 45.2235 24.4305 45.7949 23.3041C46.2208 22.4658 46.627 21.6174 47.0396 20.772C47.3378 20.1607 47.4717 19.5001 47.5773 18.8372C47.6893 18.1327 47.1265 17.4995 46.393 17.4158C45.6149 17.3273 44.8509 17.4674 44.0806 17.5058C43.708 17.5246 43.3331 17.5488 42.9659 17.613C42.6137 17.6748 42.252 17.6819 41.906 17.7899C41.6242 17.8776 41.5146 17.7962 41.5146 17.5019C41.5146 16.4616 41.8035 15.5177 42.4141 14.6645C42.9456 13.9225 43.5961 13.3002 44.2842 12.7156C44.4892 12.5418 44.6998 12.3641 44.944 12.2326C45.2008 12.0949 45.4716 12.0886 45.7448 12.0917C46.5018 12.1019 46.9268 12.5817 47.2603 13.1836C47.3676 13.3777 47.4537 13.5836 47.5906 13.762C47.712 13.9194 47.82 13.9288 47.9985 13.8247C48.4306 13.5703 48.6474 13.1187 48.9973 12.7915C49.3644 12.4479 49.6916 12.0628 50.1872 11.8749C50.5003 11.7559 50.8181 11.7544 51.1069 11.8452C51.4412 11.9501 51.7793 12.0659 52.0854 12.2671C52.6107 12.6122 53.0545 13.0302 53.4287 13.5311C53.8545 14.1017 54.2021 14.7185 54.4972 15.3643C54.8346 16.1024 55.06 16.8788 55.2432 17.6678C55.2573 17.7273 55.2596 17.7891 55.2628 17.8502C55.2635 17.8699 55.2518 17.8904 55.2418 17.923C55.2415 17.9237 55.2409 17.9243 55.2402 17.9245ZM66.435 34.3945C66.4348 34.3955 66.4347 34.3965 66.4346 34.3975C66.4285 34.6347 66.4317 34.8703 66.4676 35.1059C66.4911 35.2593 66.5537 35.3259 66.7087 35.3572C67.1228 35.4417 67.5384 35.4847 67.9604 35.502C68.2774 35.5145 68.2915 35.509 68.311 35.1928C68.3541 34.5056 68.3698 33.8168 68.4332 33.1296C68.4731 32.6967 68.5028 32.2498 68.4543 31.824C68.4034 31.3786 68.3752 30.927 68.2938 30.4832C68.2273 30.1216 68.178 29.7576 68.1099 29.396C68.084 29.2575 68.0261 29.0986 67.839 29.1729C67.3678 29.3608 66.8558 29.367 66.3776 29.5205C66.2296 29.5682 66.1325 29.6551 66.1576 29.796C66.2758 30.4636 66.1991 31.1415 66.2703 31.8091C66.3618 32.6684 66.3603 33.5315 66.4352 34.3908C66.4353 34.392 66.4353 34.3933 66.435 34.3945ZM70.7261 32.2734C70.7597 31.959 70.7675 31.643 70.7573 31.327C70.7299 30.4589 70.6015 29.6073 70.3533 28.7745C70.3134 28.6399 70.2383 28.5843 70.0982 28.6195C69.6238 28.7385 69.1502 28.8575 68.675 28.9726C68.5185 29.0109 68.488 29.1197 68.5099 29.252C68.5326 29.3866 68.5788 29.5181 68.6015 29.6527C68.7056 30.2711 68.7972 30.8886 68.8473 31.5156C68.9138 32.3437 68.9067 33.1656 68.8441 33.9905C68.8136 34.3952 68.8347 34.8022 68.7839 35.2061C68.7682 35.3321 68.8065 35.4887 68.9701 35.4589C69.3976 35.3822 69.8297 35.3298 70.2477 35.2061C70.3956 35.1623 70.4708 35.0785 70.4809 34.911C70.5044 34.5377 70.5357 34.1627 70.5921 33.7925C70.6701 33.2835 70.6732 32.7674 70.7261 32.2734ZM73.0966 31.1383C73.0963 31.1381 73.0962 31.1378 73.0962 31.1375C73.0892 31.0233 73.0946 30.8758 73.0688 30.7344C72.9929 30.3282 72.8849 29.9275 72.8262 29.5189C72.7667 29.1056 72.5632 28.755 72.4042 28.3832C72.3283 28.2063 72.2007 28.1828 72.0309 28.2055C71.7224 28.247 71.4305 28.3534 71.1213 28.402C70.6406 28.4779 70.6477 28.5194 70.787 28.9906C70.8394 29.1667 70.8997 29.342 70.9287 29.522C71.0594 30.329 71.176 31.136 71.1314 31.9602C71.0813 32.8861 70.9749 33.805 70.8449 34.7224C70.8332 34.8046 70.7886 34.8914 70.8786 34.9533C70.9537 35.0042 71.0242 34.9603 71.0939 34.9267C71.4445 34.7576 71.7929 34.5807 72.1483 34.4226C72.441 34.2927 72.6273 34.1072 72.686 33.7706C72.7354 33.4857 72.7823 33.1945 72.8692 32.9182C73.0492 32.3464 73.0594 31.7581 73.0969 31.1393C73.097 31.139 73.0968 31.1386 73.0966 31.1383ZM65.7576 30.7564C65.7576 30.4957 65.7748 30.2343 65.7529 29.976C65.7271 29.6676 65.6511 29.6292 65.3693 29.7443C65.2965 29.7741 65.2237 29.7858 65.1478 29.7952C64.7627 29.8445 64.3768 29.8954 63.9924 29.9517C63.8405 29.9736 63.7615 30.0746 63.7764 30.2265C63.8202 30.689 63.8327 31.1579 63.886 31.6142C63.9924 32.519 64.0542 33.4239 64.0824 34.3326C64.0918 34.6433 64.2038 34.7764 64.5036 34.839C64.5779 34.8547 64.6499 34.8805 64.7235 34.9016C65.0617 34.9979 65.3928 35.1169 65.7427 35.1748C65.9462 35.2084 66.0253 35.1263 65.9963 34.9415C65.9008 34.3357 65.9862 33.7166 65.8601 33.1147C65.7834 32.746 65.9001 32.3805 65.8492 32.0158C65.7912 31.5978 65.7513 31.1798 65.7576 30.7571V30.7564ZM61.7442 30.1308C61.7432 30.1309 61.7421 30.1309 61.7411 30.1308C61.6091 30.1153 61.5397 30.1114 61.4726 30.0989C61.3701 30.0793 61.3301 30.1271 61.3262 30.221C61.3161 30.4347 61.2707 30.6538 61.302 30.862C61.4264 31.6956 61.3607 32.5394 61.4593 33.3745C61.4797 33.5483 61.5251 33.6508 61.6855 33.7276C62.1951 33.9741 62.7282 34.1643 63.2448 34.3929C63.5173 34.5134 63.5775 34.4743 63.5697 34.1721C63.5626 33.8966 63.5321 33.6211 63.5 33.3503C63.4585 33.0028 63.5313 32.6623 63.4993 32.3194C63.4719 32.0306 63.4609 31.7395 63.4225 31.4522C63.367 31.0413 63.4617 30.6272 63.3857 30.2155C63.3576 30.0652 63.3145 30.0363 63.1642 30.048C62.6706 30.0863 62.1714 30.0238 61.7442 30.1308ZM60.8957 31.5281C60.9098 31.0765 60.8519 30.6272 60.8307 30.1772C60.8252 30.0574 60.7798 30.0097 60.6609 29.9791C60.4605 29.9275 60.2389 29.9525 60.0605 29.8805C59.7896 29.7717 59.5055 29.7169 59.2338 29.6159C58.9708 29.5181 58.9497 29.5533 58.9207 29.8367C58.8464 30.5615 58.9755 31.287 58.891 32.0111C58.8855 32.0564 58.891 32.1026 58.8941 32.1488C58.9027 32.2568 58.9583 32.3312 59.0538 32.3836C59.5884 32.6764 60.1215 32.9714 60.6562 33.2642C60.9262 33.4121 60.9959 33.3753 60.9755 33.0591C60.9419 32.5496 60.862 32.0424 60.8957 31.5289V31.5281ZM58.4565 30.4527C58.4631 30.0421 58.6174 29.5197 58.2681 29.3038C58.2141 29.2704 58.1516 29.2397 58.0816 29.2105C57.4146 28.9303 56.7728 28.5922 56.2287 28.099C56.1551 28.0317 56.087 27.8994 55.9641 27.9754C55.835 28.0552 55.8592 28.1898 55.889 28.326C55.9673 28.6876 56.1395 29.0164 56.2428 29.3647C56.4862 30.1842 57.0107 30.7947 57.6182 31.3504C57.8209 31.5359 58.0518 31.6901 58.2741 31.8537C58.4213 31.9617 58.5011 31.9109 58.5051 31.7348C58.5082 31.6127 58.5082 31.4898 58.5019 31.3669C58.4871 31.0616 58.4518 30.7571 58.4565 30.4527ZM58.4847 23.3386C57.7478 23.3245 57.7911 24.7951 58.5253 24.8611C58.5416 24.8625 58.5578 24.8633 58.5739 24.8633C59.0006 24.8633 59.3348 24.5189 59.3356 24.0641C59.3356 23.5906 59.0538 23.3495 58.4847 23.3386ZM73.7369 30.5411C73.7367 30.5409 73.7365 30.5405 73.7365 30.5402C73.7293 29.6678 73.4773 28.8698 73.0078 28.1374C72.9616 28.0654 72.9209 27.9785 72.8136 28.038C72.7197 28.0897 72.7322 28.1773 72.7588 28.2611C72.9201 28.7636 73.0587 29.2747 73.306 29.7451C73.3671 29.8609 73.4156 29.9838 73.4203 30.1161C73.4461 30.7869 73.5362 31.4569 73.3749 32.1253C73.2747 32.541 73.2864 32.9777 73.1698 33.3925C73.1448 33.481 73.0461 33.6054 73.162 33.6477C73.2481 33.679 73.2841 33.5178 73.3342 33.4364C73.3459 33.4176 73.3522 33.3941 73.3585 33.3722C73.6089 32.4458 73.7294 31.5014 73.7373 30.5421C73.7373 30.5417 73.7372 30.5414 73.7369 30.5411Z" fill="#112580"/>
<path d="M61.3077 10.9644C61.3077 10.9649 61.3083 10.9651 61.3087 10.9648C61.411 10.8531 61.4103 10.7252 61.429 10.6089C61.5214 10.0281 61.6333 9.44971 61.7273 8.86972C61.8541 8.08622 62.1327 7.3489 62.3464 6.59358C62.4881 6.09421 62.7269 5.61362 63.0102 5.16121C63.4275 4.49356 64.1836 4.53582 64.7026 4.94127C65.2874 5.39837 65.6373 6.01437 65.8659 6.71177C65.9653 7.0139 66.1085 7.30116 66.2079 7.60328C66.2995 7.88428 66.3387 8.18328 66.4373 8.46036C66.5586 8.80006 66.5477 9.16324 66.6627 9.50528C66.7543 9.7761 66.716 10.079 66.7833 10.3639C66.806 10.4602 66.723 10.551 66.6502 10.6207C66.0936 11.1568 65.5347 11.6906 64.9782 12.2268C64.6917 12.5031 64.4083 12.7825 64.1226 13.0604C64.085 13.0972 64.0514 13.1488 63.9879 13.123C63.9394 13.1034 63.9308 13.0549 63.9261 13.0079C63.8698 12.4146 63.7703 11.826 63.7148 11.2335C63.6584 10.634 63.5997 10.0352 63.4619 9.45049C63.3304 8.89555 63.2552 8.32495 63.0369 7.79114C62.993 7.6839 62.9672 7.55945 62.8255 7.54849C62.676 7.53675 62.6361 7.66981 62.5946 7.76844C62.3574 8.33982 62.1601 8.92138 62.0482 9.53659C61.9637 10.0007 61.8134 10.4532 61.7327 10.9228C61.6318 11.5059 61.6208 12.0945 61.5652 12.68C61.5261 13.0909 61.5237 13.5081 61.5276 13.9198C61.5363 14.7236 61.4783 15.5298 61.5284 16.3282C61.5691 16.9724 61.5496 17.6283 61.6959 18.267C61.7155 18.3523 61.7437 18.476 61.6192 18.4956C61.5034 18.5143 61.4376 18.3993 61.4235 18.3053C61.3883 18.0799 61.3703 17.8498 61.3593 17.6213C61.3296 17.0248 61.2764 16.4315 61.2028 15.839C61.1449 15.371 61.1222 14.8982 61.065 14.4301C61.0133 14.0075 60.964 13.5809 60.8623 13.1684C60.7942 12.8929 60.802 12.6095 60.7182 12.3348C60.6439 12.0929 60.5609 11.855 60.4701 11.6202C60.4122 11.4699 60.3323 11.3298 60.1437 11.3C59.937 11.268 59.8572 11.4261 59.7703 11.5529C59.5621 11.8542 59.4799 12.2111 59.4008 12.5587C59.3335 12.8545 59.3319 13.1653 59.3022 13.4697C59.2951 13.5386 59.3022 13.6177 59.2286 13.6505C59.1574 13.6819 59.119 13.613 59.0767 13.5723C58.676 13.1848 58.2799 12.7927 57.8752 12.4099C57.7202 12.2636 57.5448 12.1399 57.3922 11.9881C57.2904 11.8863 57.2481 11.7861 57.2466 11.646C57.2388 10.7482 57.3922 9.86377 57.4634 8.97225C57.5143 8.33904 57.5487 7.70347 57.5284 7.06634C57.526 6.98963 57.5151 6.89336 57.4274 6.88084C57.3444 6.8691 57.2904 6.95128 57.2693 7.02407C57.1887 7.30194 57.043 7.56337 57.0509 7.86393C57.0556 8.05491 56.935 8.21537 56.9217 8.39696C56.8763 9.00669 56.7511 9.60625 56.7033 10.2176C56.6697 10.6418 56.7127 11.0691 56.636 11.4895C56.6243 11.5552 56.6493 11.6397 56.5765 11.6765C56.4881 11.7212 56.4364 11.6351 56.3824 11.5897C56.0857 11.34 55.7929 11.0848 55.497 10.8328C55.4328 10.778 55.407 10.7114 55.4094 10.63C55.4415 9.54285 55.4274 8.45175 55.5237 7.37004C55.5855 6.67733 55.7194 5.98463 55.8869 5.29975C56.0724 4.5413 56.3213 3.81572 56.6759 3.12772C56.9139 2.66513 57.202 2.22759 57.6129 1.89181C57.9597 1.60768 58.2078 1.61238 58.546 1.91216C59.1229 2.42327 59.537 3.0424 59.876 3.7398C60.1343 4.27126 60.2807 4.83717 60.5147 5.37411C60.654 5.69346 60.7018 6.06994 60.712 6.42295C60.7245 6.88632 60.874 7.3262 60.8858 7.78722C60.8928 8.06039 60.9758 8.33121 60.9546 8.60751C60.9429 8.75622 61.0447 8.86659 61.0509 9.00513C61.0752 9.56947 61.2388 10.1181 61.2372 10.6856C61.2372 10.7745 61.2263 10.8704 61.3076 10.964C61.3077 10.9641 61.3077 10.9643 61.3077 10.9644Z" fill="#112580"/>
<path d="M61.1542 6.1175C61.1536 6.11718 61.1531 6.11678 61.1528 6.1163C61.1028 6.05621 61.1165 5.98337 61.1227 5.91796C61.1736 5.3638 61.1399 4.80729 61.183 4.25078C61.2252 3.70444 61.2714 3.15419 61.3239 2.60864C61.3677 2.15858 61.5415 1.72496 61.7521 1.3156C61.8217 1.1794 61.8875 1.04086 61.9626 0.907801C62.0675 0.72308 62.1599 0.716036 62.2851 0.890581C62.3509 0.982159 62.3885 1.09409 62.4456 1.19271C62.6264 1.50188 62.808 1.81105 62.9936 2.1171C63.0656 2.23529 63.0851 2.33078 62.9294 2.38948C62.0746 2.71274 61.6581 3.36788 61.5118 4.23826C61.4131 4.82607 61.2894 5.4092 61.2323 6.00328C61.2277 6.05272 61.2345 6.11512 61.1571 6.11824C61.1561 6.11829 61.155 6.11802 61.1542 6.1175Z" fill="#112580"/>
<path d="M8.79272 72.0874C8.79302 72.0871 8.7928 72.0866 8.79238 72.0866C7.22882 72.1241 5.79747 72.0411 4.38254 71.8345C3.49877 71.7054 2.57352 71.5519 1.84005 71.0119C1.02908 70.4154 0.256466 69.7556 0.311262 68.5549C0.342573 67.8748 0.349619 67.2165 0.672128 66.5966C0.803636 66.343 0.927315 66.1144 1.1692 65.9274C2.2604 65.0828 2.72929 63.9502 2.71285 62.5726C2.70581 62.0193 2.8655 61.4659 2.92812 60.9102C3.0017 60.2652 3.03693 59.6155 3.08859 58.969C3.16687 57.9867 3.10033 57.0052 3.19192 56.0205C3.29368 54.9271 3.21149 53.8172 3.22088 52.7143C3.22636 52.0897 3.20679 51.4651 3.28194 50.8413C3.32656 50.4711 3.29133 50.0969 3.23028 49.7291C3.15904 49.3048 3.2929 48.8876 3.23028 48.4517C3.15278 47.9093 3.26237 47.3418 3.21541 46.7923C3.13947 45.9086 3.26237 44.9913 2.84045 44.1561C2.64162 43.7632 2.39035 43.4994 1.87919 43.5088C1.10892 43.5229 0.482691 43.0267 0.286994 42.2753C0.168793 41.8213 -0.0362961 41.3877 0.0952123 40.8703C0.283864 40.1283 0.708917 39.5452 1.15745 38.9613C1.65218 38.3179 2.18134 37.7027 2.67293 37.0561C3.05885 36.5482 3.45963 36.0363 3.89408 35.5784C4.71679 34.7103 5.45105 33.764 6.32229 32.9359C6.86006 32.4248 7.24675 31.7556 7.8221 31.2711C8.33953 30.8351 8.72153 30.2731 9.23739 29.8348C9.48631 29.6235 9.66322 29.3253 9.89962 29.0826C10.4703 28.4948 11.12 28.004 11.7595 27.5062C12.1728 27.1837 12.6417 26.9067 13.2022 26.884C14.0249 26.8503 14.5815 27.3536 15.1067 27.871C15.4848 28.2435 15.6977 28.7766 15.751 29.2689C15.8566 30.2442 15.8386 31.2445 15.2281 32.1031C14.8962 32.5704 14.7999 33.1253 14.5877 33.6364C14.4194 34.0419 14.4789 34.5045 14.2159 34.8771C14.1619 34.9538 14.1462 35.0766 14.1525 35.1753C14.2308 36.3423 13.9208 37.4804 13.9067 38.6396C13.8997 39.2094 13.7705 39.7784 13.8989 40.3498C13.9263 40.4719 13.8754 40.6331 14.0359 40.6832C14.1713 40.7255 14.2339 40.5877 14.3216 40.5157C14.8007 40.1228 15.048 39.5389 15.4801 39.11C16.0547 38.5402 16.2418 37.777 16.504 37.0577C16.6786 36.5779 16.8101 36.0801 16.9658 35.5956C17.1615 34.9866 17.3666 34.3597 17.4621 33.7155C17.4794 33.5989 17.4888 33.4862 17.5373 33.3766C17.6805 33.051 17.6195 32.7426 17.4527 32.4428C17.0864 31.7845 16.7224 31.1247 16.3592 30.4649C16.1189 30.0281 16.2457 29.5428 16.194 29.0818C16.1377 28.5746 16.3482 28.0878 16.3701 27.5806C16.3764 27.4397 16.486 27.2902 16.5784 27.1681C16.7216 26.9779 16.8296 26.7893 16.8688 26.5419C16.915 26.2515 17.178 26.048 17.3619 25.8664C17.6234 25.6074 17.8872 25.3005 18.3028 25.2082C18.7686 25.1049 19.1271 24.7385 19.6328 24.6759C20.5119 24.5679 21.3917 24.4842 22.2755 24.4536C23.0677 24.4255 23.8669 24.3621 24.652 24.4356C25.6485 24.5296 26.6654 24.4615 27.6415 24.7088C28.8047 25.0047 29.903 25.4829 30.5684 26.5443C31.0819 27.3622 31.4224 28.2655 31.247 29.2791C31.2008 29.5468 31.2603 29.8278 31.1688 30.0915C30.7523 31.2891 29.8435 31.8761 28.6638 32.1767C28.1206 32.3152 27.5538 32.2714 27.0231 32.4632C26.8681 32.5187 26.7366 32.5821 26.6536 32.7269C26.4266 33.1246 26.0282 33.3468 25.6931 33.6247C25.3268 33.9292 25.0544 34.254 24.8681 34.7049C24.6888 35.1393 24.2771 35.4539 24.0963 35.9095C23.7589 36.7564 23.2031 37.4843 22.7452 38.2615C22.2645 39.0755 22.1017 39.9608 21.96 40.8382C21.8669 41.4151 22.0595 42.0522 22.3272 42.6064C22.609 43.1903 22.9174 43.7616 23.1107 44.3831C23.1788 44.6015 23.3284 44.7674 23.4254 44.9639C23.834 45.7897 24.2904 46.5935 24.6896 47.4208C25.3237 48.7342 26.0892 49.9678 26.7969 51.2366C27.4857 52.4717 28.148 53.7217 28.8423 54.9537C29.1421 55.4859 29.4779 55.9986 29.7331 56.5559C29.7824 56.6639 29.8599 56.7719 29.9938 56.7602C30.1676 56.7445 30.195 56.5817 30.1817 56.4628C30.1128 55.8319 30.2091 55.201 30.1402 54.5678C30.0752 53.9643 30.0775 53.3507 30.0932 52.7425C30.1089 52.114 30.0118 51.4941 30.0016 50.8687C29.9969 50.5877 29.8247 50.3529 29.6901 50.1173C29.4059 49.6218 29.1038 49.1358 28.8086 48.6466C28.782 48.602 28.7312 48.5605 28.7272 48.5151C28.6482 47.6384 28.0705 46.8362 28.3405 45.9063C28.3664 45.8178 28.3953 45.7372 28.4392 45.6566C29.0419 44.5538 30.1989 44.1381 31.4302 44.4677C32.714 44.8105 33.8451 45.4453 34.9606 46.1223C35.8123 46.6397 36.7328 46.9817 37.6706 47.2956C38.6686 47.6298 39.4874 48.2411 39.9947 49.1553C40.5215 50.1048 40.6029 51.3798 39.8303 52.3653C39.4734 52.8208 39.3998 53.2881 39.3888 53.8461C39.3724 54.6743 39.4507 55.5086 39.3105 56.3328C39.2839 56.4894 39.3011 56.6256 39.4272 56.7195C39.5822 56.8353 39.6463 56.6616 39.7505 56.6021C40.2092 56.3422 40.7329 56.1818 41.1086 55.7951C41.5978 55.2918 41.9563 54.6766 41.6017 53.9949C41.435 53.6747 41.3113 53.3335 41.1211 53.0196C40.9528 52.7425 41.0014 52.4075 41.0389 52.1023C41.1211 51.4244 41.1454 50.7286 41.6573 50.1752C42.307 49.4739 42.9998 48.8986 44.0245 48.8524C44.5724 48.8274 44.6851 48.6834 44.6335 48.1268C44.5568 47.2909 44.8339 46.6053 45.367 45.9861C45.5345 45.792 45.6292 45.5439 45.7991 45.3404C46.8237 44.1147 48.149 43.5135 49.7208 43.4047C50.9357 43.3202 52.1365 43.5135 53.3396 43.6129C54.0207 43.6693 54.6837 43.9338 55.3647 44.0106C56.4199 44.1303 57.4837 44.2305 58.5436 44.2281C60.1217 44.225 61.7014 44.3276 63.2779 44.1898C64.5202 44.081 65.7915 44.0661 66.9547 43.5808C67.7829 43.2357 68.6291 42.9468 69.4643 42.6259C70.55 42.208 71.6428 42.0412 72.7638 42.5156C73.5559 42.8506 74.0898 43.4634 74.5626 44.1413C74.9712 44.7275 75.2029 45.414 75.4949 46.0542C75.8753 46.8902 75.9434 47.8247 75.7204 48.7601C75.5708 49.3878 75.3329 49.9467 74.9798 50.4953C74.6229 51.0503 74.2307 51.5418 73.7422 51.9794C73.5489 52.1531 73.4119 52.4005 73.2452 52.6102C72.4734 53.58 70.2518 53.6027 69.2545 52.9312C68.5453 52.4529 68.0075 51.8291 67.5058 51.1724C67.0885 50.6261 66.6212 50.3333 65.9214 50.3936C65.6333 50.4186 65.5308 50.4922 65.4807 50.792C65.2514 52.1657 65.3601 53.5479 65.3273 54.9263C65.2866 56.635 65.238 58.3452 65.2717 60.0531C65.2991 61.444 65.2373 62.8317 65.2506 64.221C65.2545 64.6578 65.4564 64.9599 65.8102 65.1806C66.46 65.5861 67.1606 65.9328 67.5754 66.6201C68.0028 67.3269 68.1954 68.0767 67.9277 68.8954C67.833 69.1842 67.8087 69.4762 67.6435 69.7642C67.1692 70.5884 66.4013 71.0017 65.5981 71.3672C64.0834 72.056 62.4615 72.1335 60.8278 72.1789C59.8665 72.2055 58.9053 72.2689 57.9456 72.2118C57.1417 72.164 56.3393 72.0685 55.5401 71.9605C54.7581 71.8549 53.9964 71.6725 53.2551 71.3758C52.762 71.1786 52.3408 70.8827 51.9087 70.6002C51.6073 70.4037 51.3451 70.3474 51.0555 70.5736C49.8234 71.5355 48.3282 71.6349 46.8762 71.7312C45.8773 71.7969 44.8511 71.7038 43.8452 71.5152C43.0961 71.3751 42.3861 71.1418 41.7184 70.7904C40.7102 70.2597 39.9321 69.1756 40.5137 67.7143C40.6671 67.3284 40.8276 66.9605 41.0671 66.613C41.6213 65.8107 41.579 64.8605 41.619 63.944C41.6291 63.7115 41.6996 63.4829 41.6683 63.2489C41.6432 63.0626 41.7239 62.8137 41.5016 62.7268C41.3074 62.6509 41.0765 62.7323 40.9105 62.8442C40.3219 63.2395 39.7215 63.6371 39.4162 64.3165C39.0906 65.0398 39.017 65.817 39.4186 66.4964C39.9094 67.3284 39.9321 68.1761 39.752 69.0551C39.6252 69.6734 39.2393 70.1329 38.6757 70.4507C37.9391 70.8647 37.1422 71.0471 36.3187 71.1661C36.076 71.2013 35.8287 71.271 35.6087 71.3758C34.6357 71.84 33.5923 71.9433 32.5402 72.0044C31.5014 72.0638 30.465 71.9793 29.4278 71.9449C28.2724 71.9065 27.1139 71.9441 25.9577 71.9269C24.8109 71.9096 23.9561 71.4142 23.333 70.4194C23.0051 69.8957 22.6951 69.3572 22.3546 68.8391C21.9929 68.2896 21.7236 67.6791 21.369 67.1186C20.4634 65.6863 19.5029 64.2891 18.6645 62.8145C18.3295 62.2259 18.0124 61.6216 17.6226 61.0714C17.1655 60.4257 16.666 59.8089 16.2449 59.1381C15.8848 58.5644 15.4817 58.0274 15.0198 57.5335C14.9353 57.4435 14.8719 57.2823 14.7146 57.3488C14.5854 57.4028 14.6222 57.5539 14.6198 57.6658C14.5932 59.0152 14.4343 60.3583 14.4531 61.7124C14.4617 62.3198 14.403 62.9335 14.3748 63.5448C14.3357 64.3838 14.6652 65.021 15.2836 65.5634C16.1564 66.3289 16.5768 67.3362 16.5635 68.4727C16.5525 69.4464 15.9936 70.201 15.3071 70.8569C14.7607 71.379 14.057 71.5488 13.358 71.667C11.8061 71.9299 10.2471 72.1623 8.79302 72.0882C8.79262 72.0881 8.79244 72.0877 8.79272 72.0874ZM53.958 51.7074C53.9576 51.7076 53.9573 51.7074 53.9573 51.707C53.951 51.3889 53.9478 51.1808 53.8829 50.9791C53.8132 50.7646 53.6575 50.6519 53.4414 50.6707C53.158 50.6949 52.8747 50.7411 52.596 50.7998C52.0833 50.9071 52.0848 50.9141 52.1796 51.4479C52.2117 51.6272 52.2492 51.8056 52.2719 51.9856C52.3878 52.8991 52.4042 53.7859 51.6778 54.5068C51.4962 54.6868 51.3083 54.8966 51.2199 55.129C50.9788 55.7622 50.8011 56.4197 50.7932 57.1046C50.7815 58.0501 50.7792 58.9964 50.7917 59.9419C50.8105 61.3469 50.7745 62.7511 50.7502 64.1561C50.7424 64.6304 50.7369 65.1274 50.9788 65.5657C51.2809 66.1136 51.4641 66.2725 51.976 65.8068C52.3032 65.5086 52.6406 65.244 53.0899 65.1188C53.4852 65.0084 53.7663 64.7345 53.7459 64.261C53.7365 64.0426 53.7373 63.8203 53.7639 63.6043C53.8477 62.9186 53.7357 62.2329 53.7741 61.5449C53.7866 61.3187 53.8618 61.0871 53.8265 60.8726C53.7561 60.4484 53.7999 60.021 53.8375 59.6124C53.9025 58.9205 53.6097 58.2145 53.9291 57.5398C53.9338 57.5304 53.9236 57.5147 53.9228 57.5022C53.7749 56.2444 53.9753 54.9873 53.9213 53.7264C53.8915 53.0239 53.8321 52.3058 53.9586 51.708C53.9587 51.7076 53.9583 51.7073 53.958 51.7074Z" fill="#1C1C1C"/>
</svg>
