<svg width="80" height="76" viewBox="0 0 80 76" fill="none" xmlns="http://www.w3.org/2000/svg">
<g clip-path="url(#clip0_2146_4132)">
<path d="M57.9678 18.8099C57.9673 18.81 57.9668 18.81 57.9663 18.8098C57.6597 18.6888 57.4926 18.4097 57.2604 18.2144C56.7067 17.747 56.1038 17.4727 55.3579 17.554C54.2243 17.6772 53.2624 18.1643 52.4919 18.9774C51.6795 19.8341 51.2408 20.8764 51.0971 22.0625C51.0059 22.8165 51.0158 23.5705 50.992 24.3229C50.9591 25.3545 51.1045 26.3771 51.4643 27.3488C51.6581 27.8737 51.9793 28.3295 52.5535 28.5291C52.6611 28.5661 52.7605 28.5267 52.8632 28.5217C53.476 28.493 54.0132 28.2704 54.5077 27.9106C55.1805 27.4195 55.7547 26.8379 56.2747 26.1874C56.7347 25.6116 57.2423 25.0728 57.6752 24.474C58.0137 24.0058 58.3472 23.5344 58.6913 23.0711C59.222 22.3557 59.8537 21.7528 60.6028 21.2584C61.1507 20.897 61.7208 20.6193 62.3418 20.4099C62.7723 20.2645 63.2167 20.1799 63.6504 20.0542C63.8303 20.0017 64.0455 20.005 64.2443 20.0025C64.8185 19.9943 65.3886 19.8735 65.9644 19.9261C66.4581 19.9713 66.9608 19.9105 67.4471 20.0707C67.7141 20.1586 68.0041 20.1208 68.2834 20.1528C68.6933 20.1996 69.0834 20.3253 69.4843 20.4017C69.9328 20.4871 70.3854 20.5931 70.8076 20.7623C71.51 21.0432 72.2164 21.3142 72.8687 21.7151C73.6671 22.2054 74.3727 22.8009 75.0627 23.4276C75.5696 23.8876 76.0649 24.3541 76.4937 24.8888C76.6243 25.0514 76.7409 25.2248 76.8206 25.4211C76.8477 25.4868 76.8855 25.5533 76.934 25.6051C77.693 26.4157 78.0257 27.44 78.3723 28.4577C78.4389 28.6531 78.3814 28.7764 78.1916 28.8626C77.8827 29.0031 77.5665 29.1139 77.2363 29.1879C76.9964 29.2412 76.9816 29.3185 77.0777 29.5435C77.3003 30.0692 77.4539 30.6179 77.5804 31.1756C77.7283 31.831 77.6412 32.4889 77.624 33.1452C77.6174 33.3916 77.5607 33.6389 77.5139 33.8828C77.3973 34.4816 77.2379 35.0672 77.0301 35.6438C76.9233 35.942 76.7951 36.2393 76.7253 36.5531C76.6826 36.7453 76.7442 36.8627 76.9381 36.9153C77.0621 36.949 77.182 36.9974 77.3028 37.041C77.4827 37.1058 77.5156 37.2159 77.4104 37.3769C77.1747 37.7383 76.8765 38.0521 76.5315 38.2952C76.0665 38.6221 75.6123 38.9654 75.1276 39.2652C74.353 39.7449 73.5472 40.1589 72.7019 40.4948C72.2172 40.687 71.7129 40.8258 71.2159 40.9835C70.3271 41.2653 69.4186 41.4509 68.5051 41.6242C67.9088 41.7375 67.3083 41.8041 66.7111 41.8977C66.2494 41.97 65.7829 41.9256 65.3278 41.9938C64.1424 42.172 62.9629 41.9774 61.7808 41.9807C61.4054 41.9815 61.044 41.8451 60.6612 41.8271C60.188 41.8057 59.7502 41.9182 59.3214 42.0661C58.3348 42.407 57.3614 42.7889 56.3601 43.0846C55.3374 43.3868 54.3114 43.6965 53.2493 43.8214C52.8279 43.8706 52.4048 43.9216 51.9834 43.9758C51.4889 44.039 50.9977 44.0743 50.5007 44.0366C50.4161 44.03 50.3266 44.0645 50.2412 44.0867C49.9257 44.1663 49.6349 44.0727 49.3499 43.9569C49.2143 43.9018 49.239 43.7778 49.276 43.6653C49.3515 43.4328 49.4739 43.2185 49.6201 43.032C50.0654 42.4636 50.4399 41.8336 50.9657 41.3359C51.4667 40.862 51.9662 40.3823 52.5157 39.9609C52.5601 39.9264 52.6012 39.887 52.6406 39.8476C52.8591 39.6283 52.8476 39.5626 52.5773 39.4073C51.7411 38.9285 50.9492 38.3831 50.1631 37.827C49.7228 37.5157 49.2998 37.1863 48.894 36.8332C48.2212 36.2475 47.7694 35.5124 47.3924 34.7099C47.0129 33.9009 46.6605 33.0836 46.3902 32.2343C46.1791 31.5698 46.0329 30.8889 45.982 30.1883C45.9277 29.4392 46.0263 28.7287 46.3114 28.0256C46.8108 26.7936 47.4565 25.6371 48.0561 24.4551C48.503 23.5755 48.9293 22.6851 49.3622 21.798C49.6752 21.1565 49.8156 20.4633 49.9265 19.7676C50.044 19.0284 49.4534 18.3639 48.6837 18.276C47.8672 18.1832 47.0654 18.3302 46.2571 18.3704C45.8661 18.3902 45.4727 18.4156 45.0874 18.483C44.7178 18.5479 44.3383 18.5553 43.9752 18.6686C43.6795 18.7606 43.5645 18.6752 43.5645 18.3663C43.5645 17.2747 43.8676 16.2842 44.5083 15.3889C45.0661 14.6102 45.7487 13.9572 46.4707 13.3437C46.6859 13.1613 46.9069 12.9749 47.1632 12.8369C47.4326 12.6923 47.7169 12.6858 48.0035 12.689C48.7979 12.6997 49.2439 13.2032 49.5939 13.8348C49.7064 14.0385 49.7967 14.2546 49.9405 14.4418C50.0678 14.6069 50.1812 14.6168 50.3685 14.5076C50.8219 14.2406 51.0495 13.7667 51.4166 13.4233C51.8019 13.0628 52.1453 12.6587 52.6652 12.4615C52.9938 12.3367 53.3273 12.335 53.6304 12.4303C53.9812 12.5404 54.3361 12.6619 54.6572 12.873C55.2084 13.2353 55.6742 13.6739 56.0668 14.1995C56.5137 14.7983 56.8784 15.4456 57.1881 16.1232C57.5421 16.8977 57.7787 17.7125 57.9709 18.5405C57.9857 18.6029 57.9882 18.6678 57.9915 18.7318C57.9923 18.7525 57.9799 18.774 57.9695 18.8082C57.9692 18.809 57.9686 18.8097 57.9678 18.8099ZM69.7155 36.0932C69.7152 36.0942 69.7151 36.0953 69.7151 36.0963C69.7086 36.3452 69.712 36.5925 69.7496 36.8397C69.7743 37.0007 69.84 37.0705 70.0026 37.1034C70.4372 37.1921 70.8734 37.2373 71.3161 37.2553C71.6488 37.2685 71.6636 37.2627 71.6841 36.9309C71.7293 36.2097 71.7457 35.4869 71.8123 34.7658C71.8542 34.3116 71.8854 33.8426 71.8345 33.3957C71.7811 32.9284 71.7515 32.4544 71.6661 31.9887C71.5962 31.6093 71.5445 31.2273 71.473 30.8478C71.4459 30.7025 71.3851 30.5357 71.1888 30.6138C70.6943 30.8109 70.1571 30.8175 69.6552 30.9784C69.4999 31.0285 69.3981 31.1197 69.4243 31.2676C69.5484 31.9682 69.4679 32.6795 69.5426 33.3801C69.6386 34.2818 69.6371 35.1876 69.7157 36.0893C69.7158 36.0906 69.7157 36.0919 69.7155 36.0932ZM74.2184 33.8673C74.2537 33.5374 74.2619 33.2058 74.2511 32.8742C74.2224 31.9633 74.0877 31.0696 73.8273 30.1957C73.7854 30.0544 73.7065 29.9961 73.5595 30.033C73.0617 30.1579 72.5647 30.2827 72.0661 30.4035C71.9018 30.4437 71.8698 30.5579 71.8928 30.6967C71.9166 30.838 71.9651 30.976 71.9889 31.1173C72.0981 31.7661 72.1942 32.4142 72.2468 33.0721C72.3166 33.9411 72.3092 34.8036 72.2435 35.6693C72.2115 36.0939 72.2337 36.521 72.1803 36.9449C72.1639 37.0771 72.2041 37.2414 72.3758 37.2102C72.8243 37.1297 73.2777 37.0746 73.7164 36.9449C73.8716 36.8989 73.9505 36.811 73.9612 36.6352C73.9858 36.2434 74.0187 35.85 74.0778 35.4615C74.1597 34.9273 74.163 34.3857 74.2184 33.8673ZM76.706 32.6762C76.7057 32.676 76.7056 32.6756 76.7056 32.6753C76.6982 32.5555 76.7039 32.4007 76.6769 32.2524C76.5972 31.8261 76.4838 31.4056 76.4222 30.9768C76.3598 30.5431 76.1462 30.1751 75.9795 29.785C75.8998 29.5994 75.7659 29.5747 75.5876 29.5985C75.264 29.6421 74.9576 29.7538 74.6331 29.8047C74.1287 29.8844 74.1361 29.9279 74.2823 30.4224C74.3374 30.6072 74.4006 30.7912 74.431 30.9801C74.5682 31.8269 74.6906 32.6737 74.6438 33.5386C74.5912 34.5103 74.4795 35.4746 74.3431 36.4373C74.3308 36.5235 74.284 36.6147 74.3785 36.6796C74.4573 36.7329 74.5312 36.687 74.6044 36.6516C74.9724 36.4742 75.3379 36.2886 75.7108 36.1227C76.0181 35.9863 76.2136 35.7917 76.2752 35.4385C76.3269 35.1395 76.3762 34.8339 76.4674 34.544C76.6562 33.9439 76.667 33.3266 76.7064 32.6773C76.7064 32.6769 76.7062 32.6765 76.706 32.6762ZM69.0046 32.2754C69.0046 32.0019 69.0226 31.7275 68.9996 31.4565C68.9725 31.1329 68.8929 31.0926 68.5971 31.2134C68.5208 31.2446 68.4443 31.2569 68.3647 31.2667C67.9605 31.3185 67.5555 31.3719 67.1522 31.431C66.9929 31.454 66.9099 31.56 66.9255 31.7193C66.9715 32.2047 66.9846 32.6967 67.0405 33.1756C67.1522 34.1251 67.2171 35.0746 67.2467 36.0282C67.2565 36.3543 67.374 36.4939 67.6886 36.5596C67.7667 36.5761 67.8422 36.6032 67.9195 36.6253C68.2743 36.7264 68.6218 36.8512 68.989 36.912C69.2025 36.9473 69.2855 36.8611 69.2551 36.6672C69.1549 36.0315 69.2444 35.3818 69.1122 34.7502C69.0317 34.3633 69.1541 33.9797 69.1007 33.597C69.0399 33.1584 68.998 32.7197 69.0046 32.2762V32.2754ZM64.793 31.6189C64.7919 31.619 64.7908 31.619 64.7898 31.6189C64.6512 31.6026 64.5784 31.5985 64.508 31.5854C64.4004 31.5649 64.3585 31.615 64.3544 31.7136C64.3437 31.9378 64.2961 32.1678 64.3289 32.3863C64.4595 33.261 64.3905 34.1465 64.494 35.0229C64.5154 35.2052 64.563 35.3128 64.7314 35.3933C65.2662 35.652 65.8256 35.8516 66.3677 36.0915C66.6536 36.2179 66.7168 36.1769 66.7086 35.8598C66.7012 35.5707 66.6692 35.2816 66.6355 34.9974C66.592 34.6327 66.6684 34.2754 66.6347 33.9157C66.606 33.6126 66.5945 33.307 66.5542 33.0056C66.4959 32.5744 66.5953 32.1399 66.5156 31.7078C66.486 31.5501 66.4408 31.5197 66.2831 31.532C65.7651 31.5723 65.2413 31.5067 64.793 31.6189ZM63.9026 33.0853C63.9174 32.6113 63.8566 32.1399 63.8344 31.6676C63.8287 31.5419 63.781 31.4918 63.6562 31.4598C63.4459 31.4056 63.2134 31.4318 63.0261 31.3563C62.7419 31.2421 62.4437 31.1846 62.1587 31.0786C61.8827 30.976 61.8605 31.0129 61.8301 31.3103C61.7521 32.0709 61.8876 32.8323 61.7989 33.592C61.7931 33.6397 61.7989 33.6881 61.8022 33.7366C61.8112 33.8499 61.8695 33.928 61.9697 33.983C62.5308 34.2902 63.0902 34.5999 63.6512 34.907C63.9346 35.0623 64.0077 35.0237 63.9864 34.6918C63.951 34.1571 63.8673 33.6249 63.9026 33.0861V33.0853ZM61.343 31.9567C61.3498 31.5259 61.5118 30.9776 61.1453 30.7511C61.0885 30.716 61.023 30.6839 60.9495 30.6532C60.2496 30.3591 59.576 30.0043 59.0051 29.4868C58.9279 29.4162 58.8565 29.2774 58.7275 29.3571C58.5919 29.4408 58.6174 29.5821 58.6486 29.725C58.7308 30.1045 58.9115 30.4495 59.0199 30.815C59.2754 31.675 59.8258 32.3156 60.4632 32.8988C60.676 33.0935 60.9183 33.2553 61.1516 33.4269C61.306 33.5403 61.3898 33.4869 61.3939 33.3021C61.3972 33.174 61.3972 33.045 61.3906 32.916C61.375 32.5957 61.338 32.2762 61.343 31.9567ZM61.3725 24.4913C60.5992 24.4765 60.6447 26.0197 61.4151 26.089C61.4322 26.0905 61.4492 26.0913 61.4662 26.0913C61.9139 26.0913 62.2646 25.7299 62.2654 25.2527C62.2654 24.7558 61.9697 24.5028 61.3725 24.4913ZM77.378 32.0495C77.3777 32.0492 77.3775 32.0489 77.3775 32.0485C77.37 31.1331 77.1055 30.2956 76.6128 29.5271C76.5643 29.4515 76.5216 29.3603 76.4091 29.4228C76.3105 29.477 76.3236 29.569 76.3516 29.6569C76.5208 30.1842 76.6662 30.7205 76.9258 31.2142C76.9898 31.3357 77.0408 31.4647 77.0457 31.6035C77.0728 32.3074 77.1673 33.0105 76.9981 33.712C76.8929 34.1481 76.9052 34.6064 76.7828 35.0417C76.7565 35.1346 76.653 35.2652 76.7746 35.3095C76.865 35.3424 76.9028 35.1732 76.9553 35.0877C76.9677 35.068 76.9742 35.0434 76.9808 35.0204C77.2436 34.0482 77.3701 33.0572 77.3784 32.0505C77.3784 32.0501 77.3782 32.0498 77.378 32.0495Z" fill="white"/>
<path d="M64.335 11.506C64.3349 11.5066 64.3356 11.5068 64.3359 11.5064C64.4433 11.3892 64.4426 11.255 64.4622 11.133C64.5592 10.5235 64.6766 9.91655 64.7752 9.30792C64.9083 8.48573 65.2007 7.712 65.425 6.91938C65.5737 6.39535 65.8242 5.89103 66.1216 5.41628C66.5594 4.71565 67.3529 4.76 67.8975 5.18547C68.5111 5.66515 68.8783 6.31157 69.1182 7.04341C69.2225 7.36045 69.3728 7.6619 69.4772 7.97894C69.5733 8.27381 69.6143 8.58758 69.7178 8.87834C69.8452 9.23482 69.8337 9.61593 69.9544 9.97487C70.0505 10.2591 70.0103 10.5769 70.0809 10.8759C70.1047 10.9769 70.0177 11.0722 69.9413 11.1453C69.3572 11.708 68.7707 12.2681 68.1867 12.8308C67.886 13.1207 67.5887 13.4139 67.2888 13.7055C67.2494 13.7441 67.2141 13.7983 67.1475 13.7712C67.0966 13.7507 67.0876 13.6998 67.0827 13.6505C67.0235 13.0279 66.9192 12.4102 66.8609 11.7884C66.8017 11.1593 66.7401 10.5309 66.5955 9.91737C66.4575 9.33502 66.3787 8.73625 66.1495 8.17607C66.1035 8.06354 66.0764 7.93295 65.9277 7.92145C65.7708 7.90913 65.7289 8.04876 65.6854 8.15225C65.4365 8.75185 65.2295 9.36213 65.112 10.0077C65.0233 10.4948 64.8656 10.9695 64.781 11.4624C64.675 12.0743 64.6635 12.692 64.6052 13.3063C64.5641 13.7376 64.5616 14.1753 64.5657 14.6074C64.5748 15.4509 64.514 16.2969 64.5666 17.1347C64.6093 17.8107 64.5887 18.499 64.7423 19.1693C64.7629 19.2588 64.7925 19.3886 64.6619 19.4091C64.5403 19.4288 64.4713 19.3081 64.4565 19.2095C64.4195 18.973 64.4006 18.7315 64.3891 18.4916C64.3579 17.8657 64.3021 17.2432 64.2248 16.6214C64.1641 16.1302 64.1402 15.6341 64.0803 15.1429C64.0261 14.6994 63.9743 14.2517 63.8675 13.8189C63.796 13.5297 63.8043 13.2324 63.7164 12.9441C63.6383 12.6903 63.5513 12.4406 63.456 12.1942C63.3952 12.0365 63.3114 11.8895 63.1134 11.8583C62.8966 11.8246 62.8128 11.9905 62.7216 12.1236C62.5031 12.4398 62.4168 12.8143 62.3339 13.179C62.2632 13.4895 62.2616 13.8156 62.2304 14.1351C62.223 14.2074 62.2304 14.2903 62.1532 14.3248C62.0784 14.3577 62.0382 14.2854 61.9938 14.2427C61.5732 13.8361 61.1576 13.4246 60.7329 13.023C60.5702 12.8694 60.3862 12.7396 60.226 12.5802C60.1193 12.4735 60.0749 12.3683 60.0733 12.2213C60.0651 11.2792 60.2261 10.3511 60.3008 9.41552C60.3542 8.75103 60.3903 8.08408 60.369 7.41549C60.3665 7.33499 60.355 7.23396 60.263 7.22082C60.1759 7.2085 60.1193 7.29474 60.0971 7.37113C60.0125 7.66272 59.8597 7.93705 59.8679 8.25246C59.8728 8.45287 59.7463 8.62125 59.7324 8.81181C59.6847 9.45166 59.5533 10.0808 59.5032 10.7223C59.4679 11.1675 59.513 11.616 59.4325 12.057C59.4202 12.126 59.4465 12.2147 59.3701 12.2533C59.2773 12.3002 59.2231 12.2098 59.1664 12.1622C58.8551 11.9002 58.5478 11.6324 58.2373 11.3679C58.17 11.3104 58.1429 11.2406 58.1453 11.1552C58.179 10.0143 58.1642 8.86931 58.2653 7.73418C58.3302 7.00727 58.4706 6.28035 58.6464 5.56166C58.8411 4.76575 59.1023 4.00434 59.4744 3.28236C59.7242 2.79693 60.0264 2.33779 60.4577 1.98542C60.8216 1.68727 61.082 1.69219 61.4369 2.00678C62.0423 2.54313 62.4768 3.19283 62.8325 3.92467C63.1036 4.48238 63.2572 5.07623 63.5028 5.63969C63.649 5.97481 63.6991 6.36988 63.7098 6.74032C63.7229 7.22657 63.8798 7.68818 63.8922 8.17197C63.8996 8.45862 63.9866 8.74282 63.9644 9.03276C63.9521 9.18882 64.0589 9.30463 64.0655 9.45002C64.091 10.0422 64.2626 10.618 64.261 11.2135C64.261 11.3068 64.2496 11.4074 64.3348 11.5057C64.3349 11.5058 64.335 11.5059 64.335 11.506Z" fill="white"/>
<path d="M64.1738 6.41978C64.1733 6.41945 64.1727 6.41903 64.1723 6.41853C64.1199 6.35547 64.1343 6.27904 64.1408 6.2104C64.1942 5.62887 64.1589 5.04488 64.2041 4.46088C64.2484 3.88757 64.2969 3.31015 64.3519 2.73765C64.3979 2.26537 64.5803 1.81033 64.8012 1.38075C64.8744 1.23784 64.9434 1.09245 65.0222 0.95282C65.1323 0.758977 65.2292 0.751585 65.3607 0.93475C65.4297 1.03085 65.4691 1.14831 65.529 1.2518C65.7188 1.57624 65.9094 1.90068 66.1041 2.22183C66.1796 2.34586 66.2002 2.44607 66.0367 2.50767C65.1397 2.84689 64.7027 3.53438 64.5491 4.44774C64.4456 5.06459 64.3158 5.67651 64.2558 6.29993C64.2509 6.35181 64.2581 6.41729 64.1769 6.42057C64.1759 6.42061 64.1747 6.42034 64.1738 6.41978Z" fill="white"/>
<path d="M9.22677 75.6474C9.22708 75.647 9.22685 75.6465 9.22641 75.6465C7.58564 75.6859 6.0836 75.5988 4.5988 75.382C3.67139 75.2465 2.70044 75.0855 1.93075 74.5188C1.07973 73.8929 0.268969 73.2005 0.32647 71.9405C0.359328 71.2267 0.366722 70.5359 0.705157 69.8854C0.843159 69.6193 0.972945 69.3795 1.22677 69.1831C2.37186 68.2969 2.86391 67.1084 2.84666 65.6628C2.83927 65.0821 3.00684 64.5014 3.07256 63.9182C3.14977 63.2414 3.18674 62.5596 3.24095 61.8812C3.3231 60.8504 3.25328 59.8204 3.34938 58.7871C3.45617 57.6396 3.36992 56.4749 3.37978 55.3176C3.38553 54.6622 3.36499 54.0067 3.44385 53.3521C3.49067 52.9636 3.45371 52.571 3.38963 52.1849C3.31488 51.7398 3.45535 51.302 3.38963 50.8445C3.30831 50.2753 3.42331 49.6798 3.37403 49.1032C3.29435 48.1759 3.42331 47.2132 2.98056 46.3368C2.77191 45.9245 2.50823 45.6477 1.97182 45.6575C1.16352 45.6723 0.506365 45.1516 0.301004 44.3631C0.176966 43.8867 -0.0382512 43.4316 0.0997514 42.8887C0.297719 42.1101 0.743762 41.4981 1.21445 40.8854C1.7336 40.2102 2.2889 39.5646 2.80477 38.8862C3.20974 38.3531 3.63032 37.8159 4.08622 37.3354C4.94955 36.4245 5.72007 35.4315 6.63434 34.5625C7.19867 34.0262 7.60446 33.3239 8.20822 32.8155C8.75119 32.358 9.15206 31.7682 9.69339 31.3082C9.95461 31.0865 10.1403 30.7735 10.3883 30.5189C10.9872 29.9021 11.669 29.3871 12.3401 28.8647C12.7738 28.5263 13.2659 28.2355 13.854 28.2117C14.7173 28.1764 15.3014 28.7045 15.8526 29.2474C16.2493 29.6384 16.4728 30.1978 16.5286 30.7144C16.6395 31.7378 16.6206 32.7875 15.9799 33.6886C15.6316 34.1789 15.5306 34.7613 15.308 35.2976C15.1313 35.7231 15.1938 36.2085 14.9178 36.5995C14.8611 36.68 14.8447 36.8089 14.8512 36.9124C14.9334 38.1371 14.6081 39.3314 14.5933 40.5478C14.5859 41.1458 14.4504 41.7429 14.5851 42.3425C14.6138 42.4706 14.5604 42.6398 14.7288 42.6924C14.8709 42.7368 14.9367 42.5922 15.0287 42.5166C15.5314 42.1043 15.791 41.4916 16.2444 41.0415C16.8473 40.4435 17.0437 39.6427 17.3189 38.8878C17.502 38.3843 17.64 37.8619 17.8035 37.3535C18.0089 36.7145 18.2241 36.0566 18.3243 35.3806C18.3424 35.2582 18.3522 35.1399 18.4032 35.0249C18.5535 34.6832 18.4894 34.3596 18.3144 34.045C17.93 33.3543 17.548 32.6619 17.1669 31.9694C16.9147 31.5111 17.0478 31.0019 16.9936 30.5181C16.9344 29.9858 17.1554 29.475 17.1784 28.9427C17.185 28.7949 17.3 28.638 17.3969 28.5098C17.5472 28.3103 17.6606 28.1123 17.7016 27.8528C17.7501 27.548 18.0261 27.3345 18.2192 27.1439C18.4935 26.872 18.7703 26.5501 19.2065 26.4531C19.6953 26.3447 20.0715 25.9603 20.6022 25.8946C21.5246 25.7813 22.448 25.6934 23.3754 25.6613C24.2067 25.6318 25.0454 25.5652 25.8693 25.6425C26.915 25.741 27.982 25.6696 29.0064 25.9291C30.227 26.2396 31.3795 26.7414 32.0777 27.8552C32.6166 28.7135 32.9739 29.6614 32.7899 30.7251C32.7415 31.006 32.8039 31.3009 32.7078 31.5777C32.2708 32.8343 31.3171 33.4504 30.0792 33.7658C29.5091 33.9112 28.9144 33.8652 28.3574 34.0664C28.1948 34.1247 28.0568 34.1912 27.9697 34.3432C27.7315 34.7605 27.3134 34.9937 26.9618 35.2853C26.5773 35.6048 26.2915 35.9457 26.096 36.4188C25.9079 36.8747 25.4758 37.2048 25.286 37.6829C24.932 38.5716 24.3488 39.3355 23.8682 40.1511C23.3639 41.0053 23.193 41.9343 23.0443 42.855C22.9466 43.4604 23.1486 44.129 23.4296 44.7105C23.7253 45.3232 24.049 45.9228 24.2518 46.575C24.3233 46.8042 24.4802 46.9783 24.5821 47.1845C25.0109 48.051 25.4898 48.8945 25.9087 49.7627C26.5741 51.141 27.3774 52.4355 28.12 53.7669C28.8429 55.063 29.5378 56.3747 30.2665 57.6676C30.5811 58.2261 30.9335 58.7641 31.2013 59.3489C31.253 59.4623 31.3343 59.5756 31.4748 59.5633C31.6572 59.5469 31.6859 59.376 31.6719 59.2512C31.5997 58.5891 31.7007 57.9271 31.6284 57.2626C31.5602 56.6294 31.5627 55.9854 31.5791 55.3472C31.5956 54.6877 31.4937 54.0371 31.483 53.3809C31.4781 53.086 31.2974 52.8396 31.1561 52.5923C30.8579 52.0724 30.5408 51.5623 30.2311 51.049C30.2032 51.0022 30.1498 50.9586 30.1457 50.911C30.0627 49.9911 29.4565 49.1492 29.7399 48.1734C29.767 48.0806 29.7974 47.996 29.8434 47.9114C30.4759 46.7541 31.69 46.3179 32.9822 46.6637C34.3293 47.0235 35.5163 47.6896 36.6869 48.4001C37.5806 48.943 38.5466 49.3019 39.5307 49.6313C40.578 49.982 41.4373 50.6235 41.9696 51.5829C42.5224 52.5792 42.6078 53.9172 41.7971 54.9513C41.4225 55.4293 41.3453 55.9197 41.3338 56.5053C41.3165 57.3743 41.3987 58.2499 41.2516 59.1148C41.2237 59.2791 41.2418 59.422 41.374 59.5206C41.5367 59.6421 41.604 59.4598 41.7133 59.3974C42.1946 59.1247 42.7442 58.9563 43.1385 58.5505C43.6519 58.0224 44.0281 57.3768 43.656 56.6614C43.481 56.3255 43.3512 55.9673 43.1516 55.638C42.975 55.3472 43.0259 54.9957 43.0654 54.6753C43.1516 53.964 43.1771 53.2338 43.7143 52.6531C44.3961 51.9172 45.1231 51.3135 46.1984 51.265C46.7734 51.2387 46.8917 51.0876 46.8374 50.5036C46.7569 49.6264 47.0477 48.9069 47.6071 48.2572C47.7829 48.0535 47.8823 47.7931 48.0606 47.5795C49.1358 46.2933 50.5266 45.6625 52.176 45.5483C53.4509 45.4596 54.711 45.6625 55.9735 45.7668C56.6882 45.8259 57.384 46.1035 58.0986 46.184C59.2059 46.3097 60.3223 46.4148 61.4345 46.4124C63.0905 46.4091 64.7482 46.5167 66.4026 46.3721C67.7062 46.258 69.0403 46.2424 70.2609 45.7331C71.13 45.3709 72.018 45.0678 72.8945 44.731C74.0338 44.2924 75.1806 44.1175 76.3569 44.6152C77.1882 44.9668 77.7484 45.6099 78.2445 46.3212C78.6733 46.9364 78.9165 47.6567 79.2229 48.3286C79.6221 49.2058 79.6936 50.1866 79.4595 51.1681C79.3026 51.8268 79.0528 52.4133 78.6824 52.9891C78.3078 53.5714 77.8963 54.0872 77.3837 54.5464C77.1808 54.7287 77.037 54.9883 76.8621 55.2084C76.0521 56.2261 73.7209 56.2499 72.6743 55.5452C71.9301 55.0433 71.3658 54.3887 70.8392 53.6996C70.4014 53.1262 69.911 52.819 69.1766 52.8823C68.8743 52.9086 68.7667 52.9858 68.7142 53.3004C68.4735 54.7419 68.5876 56.1924 68.5531 57.6388C68.5104 59.4319 68.4595 61.2266 68.4948 63.0188C68.5236 64.4784 68.4587 65.9346 68.4726 67.3926C68.4768 67.8509 68.6887 68.1679 69.06 68.3996C69.7418 68.825 70.477 69.1889 70.9123 69.9101C71.3608 70.6518 71.5629 71.4386 71.282 72.2978C71.1826 72.6009 71.1571 72.9072 70.9838 73.2095C70.486 74.0744 69.6802 74.5081 68.8374 74.8917C67.2479 75.6145 65.5458 75.6958 63.8315 75.7434C62.8228 75.7713 61.814 75.8379 60.8069 75.7779C59.9633 75.7278 59.1213 75.6276 58.2826 75.5143C57.462 75.4034 56.6627 75.212 55.8848 74.9007C55.3673 74.6937 54.9254 74.3832 54.4719 74.0867C54.1557 73.8806 53.8805 73.8214 53.5766 74.0588C52.2836 75.0682 50.7147 75.1726 49.1909 75.2736C48.1427 75.3426 47.0658 75.2448 46.0103 75.0469C45.2241 74.8999 44.4791 74.6551 43.7784 74.2863C42.7204 73.7294 41.9039 72.5918 42.5142 71.0583C42.6752 70.6534 42.8436 70.2674 43.0949 69.9027C43.6765 69.0608 43.6322 68.0636 43.6741 67.1018C43.6847 66.8579 43.7587 66.618 43.7258 66.3724C43.6995 66.1769 43.7841 65.9158 43.5508 65.8246C43.3471 65.7449 43.1048 65.8303 42.9307 65.9478C42.3129 66.3626 41.6829 66.7798 41.3625 67.4928C41.0208 68.2517 40.9436 69.0673 41.365 69.7803C41.88 70.6534 41.9039 71.5429 41.7149 72.4653C41.5819 73.1142 41.1769 73.5964 40.5854 73.9298C39.8125 74.3643 38.9762 74.5557 38.1121 74.6806C37.8574 74.7175 37.5978 74.7906 37.367 74.9007C36.346 75.3878 35.251 75.4962 34.147 75.5602C33.0569 75.6227 31.9693 75.534 30.8809 75.4978C29.6684 75.4576 28.4527 75.497 27.2394 75.4789C26.036 75.4609 25.139 74.9409 24.4851 73.897C24.1409 73.3475 23.8157 72.7824 23.4583 72.2386C23.0788 71.662 22.7962 71.0214 22.4241 70.4333C21.4737 68.9302 20.4658 67.464 19.586 65.9166C19.2345 65.2989 18.9018 64.6648 18.4927 64.0874C18.013 63.4098 17.4889 62.7625 17.047 62.0586C16.6691 61.4565 16.246 60.8931 15.7614 60.3748C15.6727 60.2803 15.6061 60.1111 15.441 60.181C15.3055 60.2376 15.3441 60.3962 15.3416 60.5136C15.3137 61.9296 15.147 63.3391 15.1667 64.7601C15.1757 65.3975 15.1141 66.0414 15.0845 66.6829C15.0435 67.5634 15.3893 68.232 16.0382 68.8012C16.9541 69.6045 17.3952 70.6616 17.3813 71.8542C17.3698 72.876 16.7833 73.6678 16.0629 74.3561C15.4895 74.904 14.751 75.0822 14.0175 75.2062C12.3889 75.4822 10.753 75.726 9.22708 75.6482C9.22666 75.6482 9.22647 75.6477 9.22677 75.6474ZM56.6224 54.261C56.622 54.2612 56.6217 54.2609 56.6216 54.2606C56.6151 53.9267 56.6117 53.7084 56.5436 53.4967C56.4705 53.2716 56.307 53.1533 56.0803 53.173C55.783 53.1985 55.4856 53.247 55.1932 53.3086C54.6551 53.4211 54.6568 53.4285 54.7562 53.9887C54.7898 54.1768 54.8293 54.364 54.8531 54.5529C54.9747 55.5115 54.9919 56.4421 54.2296 57.1986C54.039 57.3875 53.8419 57.6076 53.7491 57.8516C53.4961 58.516 53.3096 59.206 53.3014 59.9247C53.2891 60.9169 53.2866 61.9099 53.2997 62.9021C53.3195 64.3765 53.2817 65.85 53.2562 67.3244C53.248 67.8221 53.2422 68.3437 53.4961 68.8037C53.8131 69.3786 54.0054 69.5454 54.5426 69.0567C54.886 68.7437 55.24 68.4661 55.7115 68.3347C56.1263 68.2189 56.4212 67.9314 56.3999 67.4345C56.39 67.2053 56.3908 66.972 56.4188 66.7453C56.5067 66.0258 56.3892 65.3063 56.4294 64.5843C56.4426 64.3469 56.5214 64.1038 56.4845 63.8788C56.4105 63.4336 56.4566 62.9851 56.496 62.5564C56.5642 61.8303 56.2569 61.0894 56.5921 60.3814C56.597 60.3715 56.5863 60.3551 56.5855 60.3419C56.4303 59.022 56.6405 57.7029 56.5839 56.3797C56.5527 55.6425 56.4903 54.8889 56.6231 54.2616C56.6232 54.2611 56.6228 54.2608 56.6224 54.261Z" fill="white"/>
</g>
<defs>
<clipPath id="clip0_2146_4132">
<rect width="80" height="76" fill="white"/>
</clipPath>
</defs>
</svg>
