<svg width="60" height="60" viewBox="0 0 60 60" fill="none" xmlns="http://www.w3.org/2000/svg">
<path d="M23.9373 27.8889C28.6513 27.8889 32.4729 24.1082 32.4729 19.4444C32.4729 14.7807 28.6513 11 23.9373 11C19.2232 11 15.4017 14.7807 15.4017 19.4444C15.4017 24.1082 19.2232 27.8889 23.9373 27.8889ZM23.9373 27.8889C15.6877 27.8889 9 34.5051 9 42.6667M23.9373 27.8889C27.4262 27.8889 30.6358 29.0724 33.1783 31.0556M41.0085 32.1111H45.2763M50.3208 39.9368L50.9531 44.159C51.335 46.7094 49.3375 49 46.7314 49H39.5534C36.9472 49 34.9497 46.7094 35.3316 44.159L35.9639 39.9368C36.274 37.8664 38.0703 36.3333 40.1856 36.3333H46.0991C48.2144 36.3333 50.0107 37.8664 50.3208 39.9368Z" stroke="#112580" stroke-width="2" stroke-linecap="round" stroke-linejoin="round"/>
</svg>
