<svg width="60" height="60" viewBox="0 0 60 60" fill="none" xmlns="http://www.w3.org/2000/svg">
<path d="M25.125 41.5C24.5727 41.5 24.125 41.9477 24.125 42.5C24.125 43.0523 24.5727 43.5 25.125 43.5V42.5V41.5ZM2.5 14C1.94772 14 1.5 14.4477 1.5 15C1.5 15.5523 1.94772 16 2.5 16V15V14ZM14.125 43.5C14.6773 43.5 15.125 43.0523 15.125 42.5C15.125 41.9477 14.6773 41.5 14.125 41.5V42.5V43.5ZM8.5 28.75C8.5 28.1977 8.05228 27.75 7.5 27.75C6.94772 27.75 6.5 28.1977 6.5 28.75H7.5H8.5ZM5 21.5C4.44772 21.5 4 21.9477 4 22.5C4 23.0523 4.44772 23.5 5 23.5V22.5V21.5ZM15 23.5C15.5523 23.5 16 23.0523 16 22.5C16 21.9477 15.5523 21.5 15 21.5V22.5V23.5ZM37.5 21.5C36.9477 21.5 36.5 21.9477 36.5 22.5C36.5 23.0523 36.9477 23.5 37.5 23.5V22.5V21.5ZM52.896 23.3908L51.9822 23.7969L51.9822 23.7969L52.896 23.3908ZM57.3708 33.459L58.2847 33.0532L58.2846 33.0529L57.3708 33.459ZM51.25 41.5C50.6977 41.5 50.25 41.9477 50.25 42.5C50.25 43.0523 50.6977 43.5 51.25 43.5V42.5V41.5ZM20 47.5V48.5C23.3137 48.5 26 45.8138 26 42.5H25H24C24 44.7092 22.2092 46.5 20 46.5V47.5ZM25 42.5H26C26 39.1862 23.3137 36.5 20 36.5V37.5V38.5C22.2092 38.5 24 40.2908 24 42.5H25ZM20 37.5V36.5C16.6863 36.5 14 39.1862 14 42.5H15H16C16 40.2908 17.7908 38.5 20 38.5V37.5ZM15 42.5H14C14 45.8138 16.6863 48.5 20 48.5V47.5V46.5C17.7908 46.5 16 44.7092 16 42.5H15ZM45 47.5V48.5C48.3138 48.5 51 45.8138 51 42.5H50H49C49 44.7092 47.2092 46.5 45 46.5V47.5ZM50 42.5H51C51 39.1862 48.3138 36.5 45 36.5V37.5V38.5C47.2092 38.5 49 40.2908 49 42.5H50ZM45 37.5V36.5C41.6862 36.5 39 39.1862 39 42.5H40H41C41 40.2908 42.7908 38.5 45 38.5V37.5ZM40 42.5H39C39 45.8138 41.6862 48.5 45 48.5V47.5V46.5C42.7908 46.5 41 44.7092 41 42.5H40ZM25.125 42.5V43.5H37.5V42.5V41.5H25.125V42.5ZM37.5 42.5H38.5V16.5H37.5H36.5V42.5H37.5ZM37.5 16.5H38.5C38.5 15.1193 37.3808 14 36 14V15V16C36.2762 16 36.5 16.2238 36.5 16.5H37.5ZM36 15V14H2.5V15V16H36V15ZM14.125 42.5V41.5H9V42.5V43.5H14.125V42.5ZM9 42.5V41.5C8.72383 41.5 8.5 41.2762 8.5 41H7.5H6.5C6.5 42.3808 7.61932 43.5 9 43.5V42.5ZM7.5 41H8.5V28.75H7.5H6.5V41H7.5ZM5 22.5V23.5H15V22.5V21.5H5V22.5ZM37.5 22.5V23.5H51.5252V22.5V21.5H37.5V22.5ZM51.5252 22.5V23.5C51.7228 23.5 51.902 23.6164 51.9822 23.7969L52.896 23.3908L53.8098 22.9847C53.4086 22.0818 52.5131 21.5 51.5252 21.5V22.5ZM52.896 23.3908L51.9822 23.7969L56.4569 33.8651L57.3708 33.459L58.2846 33.0529L53.8098 22.9847L52.896 23.3908ZM57.3708 33.459L56.4568 33.8648C56.4854 33.9292 56.5 33.9984 56.5 34.0683H57.5H58.5C58.5 33.7186 58.4266 33.3728 58.2847 33.0532L57.3708 33.459ZM57.5 34.0683H56.5V41H57.5H58.5V34.0683H57.5ZM57.5 41H56.5C56.5 41.2762 56.2762 41.5 56 41.5V42.5V43.5C57.3808 43.5 58.5 42.3808 58.5 41H57.5ZM56 42.5V41.5H51.25V42.5V43.5H56V42.5ZM37.5 42.5V43.5H40V42.5V41.5H37.5V42.5Z" fill="#112580"/>
</svg>
