<svg width="24" height="24" viewBox="0 0 24 24" fill="none" xmlns="http://www.w3.org/2000/svg">
<path d="M9.26839 8.83027L11.3472 4.42437C11.4077 4.29687 11.5007 4.18962 11.6159 4.11466C11.7311 4.0397 11.8639 4 11.9993 4C12.1347 4 12.2675 4.0397 12.3826 4.11466C12.4978 4.18962 12.5909 4.29687 12.6514 4.42437L14.7302 8.83027L19.3774 9.54101C19.5114 9.56057 19.6376 9.6194 19.7414 9.71079C19.8452 9.80217 19.9225 9.92243 19.9644 10.0578C20.0064 10.1932 20.0113 10.3383 19.9787 10.4766C19.9461 10.6148 19.8772 10.7406 19.7799 10.8395L16.4177 14.2669L17.2114 19.109C17.313 19.7305 16.6889 20.2038 16.1552 19.9107L11.9993 17.6235L7.84253 19.9107C7.30964 20.2046 6.68553 19.7305 6.78715 19.1082L7.58089 14.2661L4.21869 10.8387C4.12186 10.7396 4.05337 10.614 4.02102 10.476C3.98867 10.338 3.99374 10.1933 4.03567 10.0582C4.07759 9.9231 4.15469 9.80309 4.25819 9.71182C4.36169 9.62054 4.48744 9.56166 4.62116 9.54185L9.26839 8.83027Z" fill="#FEB912" stroke="#FEB912" stroke-width="1.5" stroke-linecap="round" stroke-linejoin="round"/>
</svg>
