<svg width="40" height="40" viewBox="0 0 40 40" fill="none" xmlns="http://www.w3.org/2000/svg">
<path d="M19.82 19.7338C19.931 19.7985 20.069 19.7985 20.18 19.7338L31.8455 13.1446C31.3745 11.34 29.7815 10 27.875 10H12.125C10.2245 10 8.636 11.3308 8.1605 13.1277L19.82 19.7338Z" fill="#1C1C1C"/>
<path d="M21.2675 21.7538C20.8715 21.9785 20.4365 22.0908 20.0015 22.0908C19.5665 22.0908 19.1285 21.9785 18.7325 21.7523L8 15.6738V25.7692C8 28.1031 9.8495 30 12.125 30H27.875C30.1505 30 32 28.1031 32 25.7692V15.6923L21.2675 21.7538Z" fill="#1C1C1C"/>
</svg>
