<svg width="24" height="24" viewBox="0 0 24 24" fill="none" xmlns="http://www.w3.org/2000/svg">
<path fill-rule="evenodd" clip-rule="evenodd" d="M5.0703 18.6429C5.05721 18.6907 5.05688 18.7411 5.06936 18.7891C5.08184 18.837 5.10668 18.8808 5.14138 18.9161C5.17608 18.9514 5.21941 18.9768 5.26703 18.9899C5.31465 19.0031 5.36487 19.0034 5.41263 18.9908L8.65113 18.1405C9.67862 18.6991 10.8286 18.9919 11.9972 18.9922H12C15.8564 18.9922 19 15.8548 19 11.9975C19.0025 11.0777 18.8226 10.1666 18.471 9.31717C18.1193 8.46777 17.6028 7.6971 16.9516 7.05003C16.3016 6.39744 15.5296 5.88035 14.6798 5.52853C13.8299 5.17671 12.9192 4.99709 12 5.00004C8.1436 5.00004 5 8.13748 5 11.994C5 13.2219 5.32195 14.4265 5.93493 15.4899L5.0703 18.6415V18.6429ZM9.78147 8.64909C9.91011 8.65262 10.0528 8.65968 10.1885 8.96171C10.2785 9.16283 10.4296 9.53331 10.5533 9.83534C10.6489 10.0703 10.7283 10.2637 10.748 10.3032C10.793 10.3935 10.8211 10.4973 10.7621 10.6193L10.7424 10.6603C10.6946 10.7591 10.6609 10.8296 10.5807 10.9214C10.5467 10.961 10.5132 11.0009 10.4802 11.0413C10.4205 11.1147 10.3607 11.1867 10.3101 11.2375C10.2194 11.3278 10.1259 11.4252 10.23 11.6059C10.334 11.7865 10.6995 12.3807 11.2387 12.8599C11.6333 13.2165 12.0857 13.5029 12.5764 13.7067C12.6256 13.7279 12.6657 13.7455 12.6959 13.7603C12.8766 13.8506 12.9841 13.8365 13.0882 13.7152C13.1929 13.5931 13.5402 13.1866 13.6625 13.0059C13.7806 12.8253 13.9015 12.8535 14.0688 12.9156C14.2361 12.9784 15.126 13.4166 15.3067 13.5063L15.4072 13.5557C15.533 13.6157 15.6181 13.6573 15.6546 13.718C15.6996 13.7949 15.6996 14.1562 15.5506 14.5803C15.3974 15.0037 14.66 15.4102 14.3261 15.4412L14.2312 15.4525C13.9247 15.4899 13.5366 15.5372 12.1532 14.9903C10.4479 14.3171 9.32245 12.6475 9.09539 12.3094L9.05814 12.2558L9.05392 12.2502C8.95059 12.1111 8.31723 11.2608 8.31723 10.3829C8.31723 9.50508 8.72916 9.10567 8.91755 8.90667C8.92862 8.89496 8.93963 8.8832 8.95059 8.87138C9.01134 8.80249 9.08556 8.74689 9.16865 8.70804C9.25173 8.66919 9.34189 8.64792 9.43351 8.64557C9.55512 8.64557 9.67744 8.64557 9.78147 8.64909Z" fill="#1833AE"/>
</svg>
