<svg width="24" height="24" viewBox="0 0 24 24" fill="none" xmlns="http://www.w3.org/2000/svg">
<path d="M17.8069 6.11491C17.8069 6.11491 19.1016 5.55179 18.9936 6.91873C18.9583 7.4811 18.6336 9.45053 18.3822 11.5812L17.5189 17.8921C17.5189 17.8921 17.4469 18.8163 16.7989 18.9767C16.1522 19.1379 15.1801 18.4144 15.0001 18.2539C14.8568 18.1335 12.3021 16.3246 11.4027 15.4398C11.1513 15.1991 10.8627 14.7162 11.4387 14.1538L15.2161 10.1347C15.6482 9.65185 16.0795 8.52636 14.2808 9.8933L9.24462 13.7118C9.24462 13.7118 8.6686 14.113 7.58923 13.7519L5.25116 12.9481C5.25116 12.9481 4.3878 12.3449 5.86251 11.7424C9.45996 9.85169 13.8854 7.92461 17.8069 6.11491Z" fill="#1833AE"/>
</svg>
